<?xml version="1.0" encoding="UTF-8"?>
<svg width="18px" height="16px" viewBox="0 0 18 16" version="1.1" xmlns="http://www.w3.org/2000/svg" xmlns:xlink="http://www.w3.org/1999/xlink">
    <!-- Generator: Sketch 60 (88103) - https://sketch.com -->
    <title>Icon Copy</title>
    <desc>Created with Sketch.</desc>
    <defs>
        <path d="M7.40626355,0.0570751653 C7.68634498,0.173046384 7.8690734,0.446220487 7.86934138,0.749362142 C7.86971809,0.948317581 7.790501,1.13915875 7.64934003,1.27936214 L2.563,6.364 L2.56434003,6.36436214 L3.84434003,5.08436214 C3.63011973,5.29884896 3.56608184,5.62120422 3.68205306,5.90128566 C3.79802428,6.18136709 4.07119838,6.36409551 4.37434003,6.36436214 L16.24934,6.36436214 C16.6635536,6.36436214 16.99934,6.70014858 16.99934,7.11436214 C16.99934,7.5285757 16.6635536,7.86436214 16.24934,7.86436214 L4.37434003,7.86436214 C4.07119838,7.86462878 3.79802428,8.04735719 3.68205306,8.32743863 C3.56608184,8.60752006 3.63011973,8.92987532 3.84434003,9.14436214 L3.839,9.139 L7.64787049,12.9475546 C7.94076371,13.2404478 7.94076371,13.7153215 7.64787049,14.0082148 C7.35497727,14.301108 6.88010354,14.301108 6.58721032,14.0082148 L0.259125998,7.68277057 C0.245355408,7.67055681 0.232079826,7.65774494 0.219340034,7.64436214 C-0.0731133445,7.35154459 -0.0731133445,6.87717969 0.219340034,6.58436214 L0.24,6.566 L6.58934003,0.219362142 C6.80382685,0.00514183891 7.12618211,-0.0588960538 7.40626355,0.0570751653 Z" id="path-1"></path>
    </defs>
    <g id="Mockup-v.1.2" stroke="none" stroke-width="1" fill="none" fill-rule="evenodd">
        <g id="Atoms-/-Icons-/-ic_return" transform="translate(-3.000000, -4.000000)">
            <g id="ic/back">
                <rect id="Rectangle" fill="#FFFFFF" opacity="0" x="0" y="0" width="24" height="24"></rect>
                <g id="Mixins-/-Color-/-Placeholder-Grey" transform="translate(3.500660, 4.885638)">
                    <mask id="mask-2" fill="white">
                        <use xlink:href="#path-1"></use>
                    </mask>
                    <use id="Mask" fill="#37A0F4" xlink:href="#path-1"></use>
                    <g id="Mixins-/-Color-/-Primary-/-Text-Grey" mask="url(#mask-2)" fill="#6A7C95">
                        <g transform="translate(-11.500660, -12.885638)" id="Rectangle-Copy-2">
                            <rect x="0" y="0" width="40" height="40"></rect>
                        </g>
                    </g>
                </g>
            </g>
        </g>
    </g>
</svg>